# Blender v3.0.0 OBJ File: 'Room.blend'
# www.blender.org
mtllib Room.mtl
o Cube
v 9.156145 0.972866 -9.574369
v 9.156145 -0.972866 -9.574369
v 9.156145 0.972866 9.574369
v 9.156145 -0.972866 9.574369
v -9.156145 0.972866 -9.574369
v -9.156145 -0.972866 -9.574369
v -9.156145 0.972866 9.574369
v -9.156145 -0.972866 9.574369
vt 0.017119 0.019785
vt 0.990058 0.019785
vt 0.990058 0.992724
vt 0.017119 0.992724
vt 0.333333 0.000000
vt 0.333333 0.333333
vt 0.000000 0.333333
vt 0.000000 0.000000
vt 0.333333 0.333333
vt 0.333333 0.666667
vt 0.000000 0.666667
vt 0.000000 0.333333
vt 0.333333 0.000000
vt 0.666667 0.000000
vt 0.666667 0.333333
vt 0.666667 0.333333
vt 0.666667 0.666667
vt 0.333333 0.666667
vt 0.333333 0.333333
vt 0.333333 0.666667
vt 0.333333 1.000000
vt 0.000000 1.000000
vt 0.000000 0.666667
vn 0.0000 1.0000 0.0000
vn 0.0000 0.0000 1.0000
vn -1.0000 0.0000 0.0000
vn 0.0000 -1.0000 0.0000
vn 1.0000 0.0000 0.0000
vn 0.0000 0.0000 -1.0000
usemtl Material
s off
f 1/1/1 5/2/1 7/3/1 3/4/1
f 4/5/2 3/6/2 7/7/2 8/8/2
f 8/9/3 7/10/3 5/11/3 6/12/3
f 6/13/4 2/14/4 4/15/4 8/9/4
f 2/16/5 1/17/5 3/18/5 4/19/5
f 6/20/6 5/21/6 1/22/6 2/23/6
o Cube.001
v -9.988907 1.004976 -9.734277
v -9.988907 3.124794 -9.734277
v -9.988907 1.004976 -10.509516
v -9.988907 3.124794 -10.509516
v 9.988907 1.004976 -9.734277
v 9.988907 3.124794 -9.734277
v 9.988907 1.004976 -10.509516
v 9.988907 3.124794 -10.509516
v -9.111169 1.004976 -10.509516
v -9.111169 3.124794 -10.509516
v -9.111169 1.004976 -9.734277
v -9.111169 3.124794 -9.734277
v 8.916825 3.124794 -10.509516
v 8.916825 1.004976 -9.734277
v 8.916825 1.004976 -10.509516
v 8.916825 3.124794 -9.734277
v -9.988907 1.004976 10.293191
v -9.988907 3.124794 10.293191
v 9.988907 3.124794 10.293191
v 9.988907 1.004976 10.293191
v 8.916825 1.004976 10.293191
v -9.111169 3.124794 10.293191
v -9.111169 1.004976 10.293191
v 8.916825 3.124794 10.293191
v -9.111169 3.124794 9.510884
v -9.111169 1.004976 9.510884
v -9.988907 1.004976 9.510884
v -9.988907 3.124794 9.510884
v 9.988907 3.124794 9.536389
v 9.988907 1.004976 9.536389
v 8.916825 3.124794 9.536389
v 8.916825 1.004976 9.536389
v -9.988907 11.367723 -9.734277
v -9.988907 11.367723 -10.509516
v 8.916825 11.367723 -10.509516
v 9.988907 11.367723 -10.509516
v 9.988907 11.367723 -9.734277
v -9.111169 11.367723 -9.734277
v -9.111169 11.367723 -10.509516
v 8.916825 11.367723 -9.734277
v -9.111169 11.367723 10.293191
v -9.988907 11.367723 10.293191
v 9.988907 11.367723 10.293191
v 8.916825 11.367723 10.293191
v 9.988907 11.367723 9.536389
v -9.111169 11.367723 9.510884
v 8.916825 11.367723 9.536389
v -9.988907 11.367723 9.510884
v -9.988907 -1.868515 -10.509516
v -9.988907 -1.868515 -9.734277
v -9.111169 -1.868515 -10.509516
v 9.988907 -1.868515 -9.734277
v 9.988907 -1.868515 -10.509516
v 8.916825 -1.868515 -9.734277
v 8.916825 -1.868515 -10.509516
v -9.111169 -1.868515 -9.734277
v 8.916825 -1.868515 10.293191
v 9.988907 -1.868515 10.293191
v -9.988907 -1.868515 10.293191
v -9.111169 -1.868515 10.293191
v 9.988907 -1.868515 9.536389
v -9.111169 -1.868515 9.510884
v -9.988907 -1.868515 9.510884
v 8.916825 -1.868515 9.536389
vt 0.375000 0.000000
vt 0.625000 0.000000
vt 0.625000 0.250000
vt 0.375000 0.250000
vt 0.375000 0.486584
vt 0.625000 0.486584
vt 0.625000 0.500000
vt 0.375000 0.500000
vt 0.625000 0.750000
vt 0.375000 0.750000
vt 0.375000 0.989016
vt 0.625000 0.989016
vt 0.625000 0.989016
vt 0.375000 0.989016
vt 0.375000 0.763416
vt 0.375000 0.763416
vt 0.375000 0.763416
vt 0.375000 0.763416
vt 0.625000 0.763416
vt 0.625000 0.763416
vt 0.625000 0.763416
vt 0.625000 0.763416
vt 0.625000 0.000000
vt 0.625000 0.250000
vt 0.375000 0.260984
vt 0.375000 0.486584
vt 0.375000 0.260984
vt 0.625000 0.989016
vt 0.375000 0.989016
vt 0.625000 0.260984
vt 0.375000 0.750000
vt 0.625000 0.750000
vt 0.625000 0.750000
vt 0.375000 0.750000
vt 0.625000 1.000000
vt 0.625000 0.989016
vt 0.625000 1.000000
vt 0.375000 0.250000
vt 0.375000 1.000000
vt 0.625000 0.763416
vt 0.375000 0.763416
vt 0.375000 0.989016
vt 0.625000 0.763416
vt 0.625000 0.000000
vt 0.375000 0.000000
vt 0.375000 0.000000
vt 0.625000 0.000000
vt 0.375000 0.000000
vt 0.375000 0.000000
vt 0.625000 0.500000
vt 0.625000 0.750000
vt 0.625000 0.750000
vt 0.375000 1.000000
vt 0.375000 0.989016
vt 0.375000 0.989016
vt 0.625000 0.989016
vt 0.625000 0.989016
vt 0.864016 0.500000
vt 0.875000 0.500000
vt 0.875000 0.750000
vt 0.864016 0.750000
vt 0.638416 0.500000
vt 0.638416 0.750000
vt 0.638416 0.750000
vt 0.638416 0.750000
vt 0.625000 0.750000
vt 0.864016 0.750000
vt 0.875000 0.750000
vt 0.875000 0.750000
vt 0.864016 0.750000
vt 0.000000 0.000000
vt 0.000000 0.000000
vt 0.000000 0.000000
vt 0.000000 0.000000
vt 0.625000 0.000000
vt 0.625000 0.000000
vt 0.625000 0.486584
vt 0.625000 0.260984
vt 0.375000 0.763416
vt 0.361584 0.500000
vt 0.375000 0.500000
vt 0.375000 0.750000
vt 0.361584 0.750000
vt 0.125000 0.500000
vt 0.135984 0.500000
vt 0.135984 0.750000
vt 0.125000 0.750000
vt 0.125000 0.750000
vt 0.135984 0.750000
vt 0.135984 0.750000
vt 0.125000 0.750000
vt 0.361584 0.750000
vt 0.375000 0.750000
vt 0.375000 0.750000
vt 0.361584 0.750000
vt 0.375000 0.000000
vn -1.0000 0.0000 0.0000
vn 0.0000 0.0000 -1.0000
vn 1.0000 0.0000 0.0000
vn 0.0000 0.0000 1.0000
vn 0.0014 0.0000 -1.0000
vn 0.0000 1.0000 0.0000
vn 0.0000 -1.0000 0.0000
usemtl None
s off
f 9/24/7 10/25/7 12/26/7 11/27/7
f 23/28/8 21/29/8 16/30/8 15/31/8
f 15/31/9 16/30/9 14/32/9 13/33/9
f 34/34/9 33/35/9 30/36/9 31/37/9
f 40/38/7 22/39/7 62/40/7 72/41/7
f 24/42/7 39/43/7 55/44/7 48/45/7
f 12/26/7 10/25/7 41/46/7 42/47/7
f 17/48/8 23/28/8 63/49/8 59/50/8
f 22/39/10 24/42/10 20/51/10 19/52/10
f 11/27/8 12/26/8 18/53/8 17/48/8
f 38/54/9 37/55/9 27/56/9 28/57/9
f 26/58/10 30/36/10 49/59/10 50/60/10
f 11/27/8 17/48/8 59/50/8 57/61/8
f 17/48/8 18/53/8 21/29/8 23/28/8
f 31/37/10 30/36/10 26/58/10 25/62/10
f 28/57/10 27/56/10 32/63/10 29/64/10
f 34/34/11 40/38/11 72/41/11 70/65/11
f 30/36/10 32/63/10 52/66/10 49/59/10
f 36/67/7 35/68/7 25/69/7 26/70/7
f 35/68/7 9/24/7 58/71/7 71/72/7
f 39/43/7 40/38/7 29/64/7 32/63/7
f 14/32/9 16/30/9 44/73/9 45/74/9
f 37/55/9 14/32/9 45/74/9 53/75/9
f 10/25/7 9/24/7 35/68/7 36/67/7
f 31/37/10 25/62/10 67/76/10 68/77/10
f 19/52/9 20/51/9 33/35/9 34/34/9
f 24/42/7 22/39/7 40/38/7 39/43/7
f 19/52/9 34/34/9 70/65/9 64/78/9
f 20/51/10 24/42/10 48/45/10 46/79/10
f 13/33/9 14/32/9 37/55/9 38/54/9
f 31/37/10 29/64/10 32/63/10 30/36/10
f 34/34/11 33/35/11 39/43/11 40/38/11
f 33/35/9 20/51/9 46/79/9 54/80/9
f 47/81/12 42/82/12 41/83/12 46/84/12
f 43/85/12 47/81/12 46/84/12 48/86/12
f 44/73/12 43/85/12 48/86/12 45/74/12
f 53/75/12 55/87/12 52/88/12 51/89/12
f 54/90/12 56/91/12 50/92/12 49/93/12
f 46/84/12 41/83/12 56/91/12 54/90/12
f 45/74/12 48/86/12 55/87/12 53/75/12
f 55/94/12 54/95/12 49/96/12 52/97/12
f 36/67/7 26/70/7 50/98/7 56/99/7
f 39/43/11 33/35/11 54/80/11 55/44/11
f 32/63/10 27/56/10 51/89/10 52/66/10
f 16/30/8 21/29/8 43/100/8 44/73/8
f 10/25/7 36/67/7 56/99/7 41/46/7
f 21/29/8 18/53/8 47/101/8 43/100/8
f 18/53/8 12/26/8 42/47/8 47/101/8
f 27/56/9 37/55/9 53/75/9 51/89/9
f 29/64/10 31/37/10 68/77/10 65/102/10
f 63/103/13 61/104/13 60/105/13 62/106/13
f 57/107/13 59/108/13 64/109/13 58/110/13
f 59/108/13 63/103/13 62/106/13 64/109/13
f 71/111/13 70/112/13 68/113/13 67/114/13
f 72/115/13 69/116/13 66/117/13 65/118/13
f 58/110/13 64/109/13 70/112/13 71/111/13
f 62/106/13 60/105/13 69/116/13 72/115/13
f 68/77/13 70/65/13 72/41/13 65/118/13
f 22/39/10 19/52/10 64/78/10 62/40/10
f 15/31/9 13/33/9 60/105/9 61/104/9
f 23/28/8 15/31/8 61/104/8 63/49/8
f 9/24/7 11/27/7 57/61/7 58/71/7
f 13/33/9 38/54/9 69/116/9 60/105/9
f 28/57/10 29/64/10 65/102/10 66/117/10
f 38/54/9 28/57/9 66/117/9 69/116/9
f 25/69/7 35/68/7 71/72/7 67/119/7
